# xmcd
#
# Track frame offsets: 
#        150
#        17967
#        35246
#        52760
#        69131
#        85913
#        104013
#        120811
#        138070
#        154798
#
# Disc length: 2243 seconds
#
# Revision: 0
# Processed by: cddbd v1.5.1PL2 Copyright (c) Steve Scherf et al.
# Submitted via: ExactAudioCopy v0.95b3
#
DISCID=7608c10a
DTITLE=Siriporn Umpaipong - Mor lum Baan don Vol 4
DYEAR=2002
DGENRE=Country
TTITLE0=Pier mae phae bor dai
TTITLE1=Salawun song sarn jai
TTITLE2=Kwam jon wud jai
TTITLE3=Sao electone
TTITLE4=Puen tae kuer nam tah
TTITLE5=Song ai duay fhai kaaw
TTITLE6=Koon jae lock jai
TTITLE7=Duen ngai sei dai ruk
TTITLE8=Ruk kerd bon rod pha pah
TTITLE9=Ber troo kee tua
EXTD=
EXTT0=
EXTT1=
EXTT2=
EXTT3=
EXTT4=
EXTT5=
EXTT6=
EXTT7=
EXTT8=
EXTT9=
PLAYORDER=
